# xmcd
#
# Track frame offsets: 
#        150
#        21035
#        50032
#        84707
#        132415
#        148440
#        164725
#        195435
#        261552
#
# Disc length: 3976 seconds
#
# Revision: 2
# Processed by: cddbd v1.5.2PL0 Copyright (c) Steve Scherf et al.
# Submitted via: ExactAudioCopy v0.95b4
#
DISCID=8e0f8609
DTITLE=Deborah Coleman - Soul Be It!
DYEAR=2002
DGENRE=Soul
TTITLE0=Brick
TTITLE1=My Heart Bleeds Blue
TTITLE2=Don't Lie To Me
TTITLE3=I'm A Woman
TTITLE4=You're With Me
TTITLE5=I Believe
TTITLE6=The Dream
TTITLE7=Goodbye Misery
TTITLE8=ENHANCED CD PART
EXTD=
EXTT0=
EXTT1=
EXTT2=
EXTT3=
EXTT4=
EXTT5=
EXTT6=
EXTT7=
EXTT8=
PLAYORDER=
